<?xml version="1.0" encoding="UTF-8" standalone="no"?>
<!-- Created with Inkscape (http://www.inkscape.org/) -->

<svg
   version="1.1"
   id="svg1"
   width="192"
   height="192"
   viewBox="0 0 192 192"
   sodipodi:docname="qr-code.svg"
   inkscape:version="1.3.2 (091e20e, 2023-11-25, custom)"
   xmlns:inkscape="http://www.inkscape.org/namespaces/inkscape"
   xmlns:sodipodi="http://sodipodi.sourceforge.net/DTD/sodipodi-0.dtd"
   xmlns="http://www.w3.org/2000/svg"
   xmlns:svg="http://www.w3.org/2000/svg">
  <defs
     id="defs1" />
  <sodipodi:namedview
     id="namedview1"
     pagecolor="#505050"
     bordercolor="#ffffff"
     borderopacity="1"
     inkscape:showpageshadow="0"
     inkscape:pageopacity="0"
     inkscape:pagecheckerboard="1"
     inkscape:deskcolor="#505050"
     inkscape:zoom="1.4142136"
     inkscape:cx="-8.131728"
     inkscape:cy="1.7677669"
     inkscape:window-width="2560"
     inkscape:window-height="1377"
     inkscape:window-x="-8"
     inkscape:window-y="-8"
     inkscape:window-maximized="1"
     inkscape:current-layer="g1" />
  <g
     inkscape:groupmode="layer"
     inkscape:label="Image"
     id="g1">
    <path
       style="fill:#000000"
       d="m 0.00591143,160.00668 v -32 h 32.00000057 32 v 32 32 h -32 -32.00000057 z m 54.65600057,22.656 0.384,-0.38399 v -22.272 -22.272 l -0.384,-0.384 -0.384,-0.384 h -22.272 -22.2720006 l -0.384,0.384 -0.384,0.384 v 22.272 22.272 l 0.384,0.38399 0.384,0.384 h 22.2720006 22.272 z m -36.736,-22.656 v -14.08 h 14.08 14.08 v 14.08 14.08001 h -14.08 -14.08 z m 55.04,13.44 v -18.56 h 4.096 4.096 l 0.384,-0.38399 0.384,-0.384 v -8.576 -8.576 h 4.48 4.480003 v 4.096 4.096 l 0.384,0.384 0.384,0.384 h 4.352 4.351995 l 0.384,-0.384 0.384,-0.384 v -4.096 -4.096 h 4.48 4.48 v 4.096 4.096 l 0.384,0.384 0.384,0.384 h 3.712 3.712 l 0.384,-0.384 0.384,-0.384 v -8.192 -8.192 l -0.384,-0.384 -0.384,-0.384 H 95.621915 72.965912 v -4.48 -4.48 h 8.576 8.576003 l 0.384,-0.384 0.384,-0.384 v -8.192 -8.192 l -0.384,-0.384 -0.384,-0.38399 h -3.712003 -3.712 l -0.384,0.38399 -0.384,0.384 v 4.096 4.096 h -4.48 -4.48 v -4.48 -4.47999 h 4.096 4.096 l 0.384,-0.384 0.384,-0.384 v -8.83201 -8.832 l -0.384,-0.384 -0.384,-0.384 h -3.712 -3.712 l -0.384,0.384 -0.384,0.384 v 4.096 4.096 h -4.096 -4.096 l -0.384,0.384 -0.384,0.384 v 4.736 4.73601 h -8.576 -8.576 l -0.384,0.38399 -0.384,0.384 v 3.712 3.712 l 0.384,0.384 0.384,0.384 h 8.576 8.576 v 4.48 4.48 h -8.96 -8.96 v -4.096 -4.096 l -0.384,-0.384 -0.384,-0.384 h -13.312 -13.312 l -0.384,0.384 -0.384,0.384 v 4.096 4.096 h -4.48 -4.4800006 v -4.48 -4.48 h 4.0960006 4.096 l 0.384,-0.384 0.384,-0.384 v -13.312 -13.312 l -0.384,-0.384 -0.384,-0.384 H 8.5819115 0.00591143 v -4.480001 -4.48 h 18.56000057 18.56 v 4.48 4.480001 h -4.736 -4.736 l -0.384,0.384 -0.384,0.384 v 8.832 8.83201 l 0.384,0.384 0.384,0.384 h 4.352 4.352 l 0.384,-0.384 0.384,-0.384 v -4.73601 -4.736 h 4.096 4.096 l 0.384,-0.384 0.384,-0.384 v -4.096 -4.096 h 4.096 4.096 l 0.384,-0.384001 0.384,-0.384 v -4.096 -4.096 h 4.48 4.48 v 4.096 4.096 l 0.384,0.384 0.384,0.384001 h 3.712 3.712 l 0.384,-0.384001 0.384,-0.384 v -4.096 -4.096 h 4.48 4.48 v 4.096 4.096 l 0.384,0.384 0.384,0.384001 h 3.712 3.712003 l 0.384,-0.384001 0.384,-0.384 v -4.096 -4.096 h 4.736 4.735995 l 0.384,-0.384 0.384,-0.384 v -3.712 -3.712 l -0.384,-0.384 -0.384,-0.384 h -4.735995 -4.736 v -4.096 -4.096 l -0.384,-0.384 -0.384,-0.384 h -3.712003 -3.712 l -0.384,0.384 -0.384,0.384 v 4.096 4.096 h -4.48 -4.48 v -4.48 -4.48 h 4.096 4.096 l 0.384,-0.384 0.384,-0.384 v -3.712 -3.712 l -0.384,-0.384 -0.384,-0.384 h -4.096 -4.096 v -14.08 -14.08 h 4.096 4.096 l 0.384,-0.384 0.384,-0.384 v -3.712 -3.7119998 l -0.384,-0.384 -0.384,-0.384 h -4.096 -4.096 v -4.48 -4.47999996 h 4.48 4.48 v 4.09599996 4.096 l 0.384,0.384 0.384,0.384 h 3.712 3.712003 l 0.384,-0.384 0.384,-0.384 v -4.096 -4.09599996 h 5.12 5.119995 V 8.5826892 17.158689 l 0.384,0.384 0.384,0.384 h 8.576 8.576 v 14.08 14.08 h -4.096 -4.096 l -0.384,0.384 -0.384,0.384 v 3.712 3.712 l 0.384,0.384 0.384,0.384 h 4.096 4.096 v 8.576 8.576 l 0.384,0.384 0.384,0.384 h 4.096 4.096 v 4.096 4.096 l 0.384,0.384 0.384,0.384001 h 8.192 8.192 l 0.384,-0.384001 0.384,-0.384 v -4.096 -4.096 h 14.08 14.08 v 4.096 4.096 l 0.384,0.384 0.384,0.384001 h 3.712 3.712 l 0.384,-0.384001 0.384,-0.384 v -4.096 -4.096 h 4.48 4.48 v 14.080001 14.08 h -4.096 -4.096 l -0.384,0.38399 -0.384,0.384 v 3.71201 3.712 l 0.384,0.384 0.384,0.384 h 4.096 4.096 v 4.48 4.48 h -4.48 -4.48 v -4.096 -4.096 l -0.384,-0.384 -0.384,-0.384 h -4.096 -4.096 v -9.216 -9.216 l -0.384,-0.384 -0.384,-0.384 h -3.712 -3.712 l -0.384,0.384 -0.384,0.384 v 13.696 13.69599 h -4.736 -4.736 l -0.384,0.384 -0.384,0.384 v 8.192 8.192 l 0.384,0.384 0.384,0.384 h 13.696 13.696 v 4.096 4.096 l 0.384,0.384 0.384,0.384 h 4.096 4.096 v 4.48 4.48 h -4.48 -4.48 v -4.096 -4.096 l -0.384,-0.384 -0.384,-0.384 h -3.712 -3.712 l -0.384,0.384 -0.384,0.384 v 4.096 4.096 h -4.48 -4.48 v -4.096 -4.096 l -0.384,-0.384 -0.384,-0.384 h -4.352 -4.352 l -0.384,0.384 -0.384,0.384 v 4.096 4.096 h -4.096 -4.096 l -0.384,0.384 -0.384,0.384 v 8.832 8.832 l 0.384,0.384 0.384,0.384 h 4.096 4.096 v 4.096 4.096 l 0.384,0.384 0.384,0.384 h 9.216 9.216 v 4.48 4.48 h -14.08 -14.08 v -4.096 -4.096 l -0.384,-0.384 -0.384,-0.384 h -3.712 -3.712 l -0.384,0.384 -0.384,0.384 v 4.096 4.096 h -4.48 -4.48 v -4.096 -4.096 l -0.384,-0.384 -0.384,-0.384 h -8.576 -8.576 v -4.096 -4.096 l -0.384,-0.384 -0.384,-0.384 h -8.832 -8.831995 l -0.384,0.384 -0.384,0.384 v 8.576 8.576 h -8.960003 -8.96 z m 63.615998,0.256 0.384,-0.38399 v -9.21601 -9.216 h 4.096 4.096 l 0.384,-0.38399 0.384,-0.384 v -3.712 -3.712 l -0.384,-0.384 -0.384,-0.384 h -4.096 -4.096 v -4.48 -4.48 h 4.096 4.096 l 0.384,-0.384 0.384,-0.384 v -12.672 -12.672 l -0.384,-0.384 -0.384,-0.384 h -3.712 -3.712 l -0.384,0.384 -0.384,0.384 v 8.576 8.576 h -4.096 -4.096 l -0.384,0.384 -0.384,0.384 v 13.056 13.056 h -4.096 -4.096 l -0.384,0.384 -0.384,0.384 v 8.832 8.832 l 0.384,0.384 0.384,0.384 h 8.192 8.192 z m -26.88,-8.96 0.384,-0.384 v -4.352 -4.352 l -0.384,-0.38399 -0.384,-0.384 h -3.712 -3.712 l -0.384,0.384 -0.384,0.38399 v 4.352 4.352 l 0.384,0.384 0.384,0.384 h 3.712 3.712 z m 8.96,-46.08 0.384,-0.384 v -3.712 -3.712 l -0.384,-0.384 -0.384,-0.384 h -3.712 -3.712 l -0.384,0.384 -0.384,0.384 v 3.712 3.712 l 0.384,0.384 0.384,0.384 h 3.712 3.712 z m -8.96,-8.95999 0.384,-0.384 v -4.096 -4.096 h 4.096 4.096 l 0.384,-0.384 0.384,-0.384 v -8.832 -8.832 l -0.384,-0.384 -0.384,-0.384 h -8.192 -8.192 l -0.384,0.384 -0.384,0.384 v 13.312 13.312 l 0.384,0.384 0.384,0.384 h 3.712 3.712 z m 26.88,0 0.384,-0.384 v -4.096 -4.096 h 4.48 4.48 v 4.096 4.096 l 0.384,0.384 0.384,0.384 h 3.712 3.712 l 0.384,-0.384 0.384,-0.384 v -8.832 -8.832 l -0.384,-0.384 -0.384,-0.384 h -12.672 -12.672 l -0.384,0.384 -0.384,0.384 v 4.736 4.73601 h -4.096 -4.096 l -0.384,0.38399 -0.384,0.384 v 3.712 3.712 l 0.384,0.384 0.384,0.384 h 8.192 8.192 z m -72.959998,-19.2 0.384,-0.384 v -3.712 -3.712 l -0.384,-0.384 -0.384,-0.384 h -3.712 -3.712 l -0.384,0.384 -0.384,0.384 v 3.712 3.712 l 0.384,0.384 0.384,0.384 h 3.712 3.712 z m 46.079998,-26.880001 0.384,-0.384 v -3.712 -3.712 l -0.384,-0.384 -0.384,-0.384 h -3.712 -3.712 l -0.384,0.384 -0.384,0.384 v 3.712 3.712 l 0.384,0.384 0.384,0.384 h 3.712 3.712 z m -8.96,-8.96 0.384,-0.384 v -13.312 -13.312 l -0.384,-0.384 -0.384,-0.384 h -8.831995 -8.832003 l -0.384,0.384 -0.384,0.384 v 8.832 8.832 l 0.384,0.384 0.384,0.384 h 4.096 4.096003 v 4.096 4.096 l 0.384,0.384 0.384,0.384 h 4.352 4.351995 z m 82.304,123.903991 v -4.47999 h 4.48 4.48 v 4.47999 4.48 h -4.48 -4.48 z m -17.92,-8.96 v -4.48 h 4.48 4.48 v 4.48 4.48 h -4.48 -4.48 z M 0.00591143,96.00669 v -5.12 h 4.48000007 4.48 v 5.12 5.12001 H 4.4859114 0.00591143 Z m 0,-64.000001 V 0.00668924 h 32.00000057 32 v 31.99999976 32 h -32 -32.00000057 z m 54.65600057,22.656 0.384,-0.384 v -22.272 -22.2719998 l -0.384,-0.384 -0.384,-0.384 h -22.272 -22.2720006 l -0.384,0.384 -0.384,0.384 v 22.2719998 22.272 l 0.384,0.384 0.384,0.384 h 22.2720006 22.272 z m -36.736,-22.656 v -14.08 h 14.08 14.08 v 14.08 14.08 h -14.08 -14.08 z m 110.079998,0 V 0.00668924 h 32 32 v 31.99999976 32 h -32 -32 z m 54.656,22.656 0.384,-0.384 v -22.272 -22.2719998 l -0.384,-0.384 -0.384,-0.384 h -22.272 -22.272 l -0.384,0.384 -0.384,0.384 v 22.2719998 22.272 l 0.384,0.384 0.384,0.384 h 22.272 22.272 z m -36.736,-22.656 v -14.08 h 14.08 14.08 v 14.08 14.08 h -14.08 -14.08 z"
       id="path1" />
  </g>
</svg>
