<?xml version="1.0" encoding="UTF-8" standalone="no"?>
<!-- Created with Inkscape (http://www.inkscape.org/) -->

<svg
   version="1.1"
   id="svg1"
   width="120.96"
   height="120.96"
   viewBox="0 0 120.96 120.96"
   sodipodi:docname="qr-code.svg"
   inkscape:version="1.3.2 (091e20e, 2023-11-25, custom)"
   xmlns:inkscape="http://www.inkscape.org/namespaces/inkscape"
   xmlns:sodipodi="http://sodipodi.sourceforge.net/DTD/sodipodi-0.dtd"
   xmlns="http://www.w3.org/2000/svg"
   xmlns:svg="http://www.w3.org/2000/svg">
  <defs
     id="defs1" />
  <sodipodi:namedview
     id="namedview1"
     pagecolor="#505050"
     bordercolor="#ffffff"
     borderopacity="1"
     inkscape:showpageshadow="0"
     inkscape:pageopacity="0"
     inkscape:pagecheckerboard="1"
     inkscape:deskcolor="#505050"
     inkscape:zoom="5.6568543"
     inkscape:cx="20.948038"
     inkscape:cy="55.06594"
     inkscape:window-width="2560"
     inkscape:window-height="1377"
     inkscape:window-x="-8"
     inkscape:window-y="-8"
     inkscape:window-maximized="1"
     inkscape:current-layer="g1" />
  <g
     inkscape:groupmode="layer"
     inkscape:label="Image"
     id="g1">
    <path
       style="fill:#000000"
       d="M 0.00248174,104.00336 V 87.043348 h 16.96000126 16.96 v 16.960012 16.96 h -16.96 -16.96000126 z m 29.12000126,0 V 91.843348 h -12.16 -12.1600013 v 12.160012 12.15999 h 12.1600013 12.16 z m -19.5200013,0.15999 v -7.200002 h 7.2000013 7.2 v 7.200002 7.20001 h -7.2 -7.2000013 z m 29.1200013,14.40001 v -2.40001 h 2.4 2.4 v -2.4 -2.4 h 2.4 2.4 v -2.4 -2.4 h -4.8 -4.8 v -2.4 -2.4 h 4.8 4.8 v -2.400002 -2.4 h -4.8 -4.8 v -2.56 -2.56 h 2.4 2.4 v -2.4 -2.4 h -2.4 -2.4 v -2.4 -2.4 h -4.8 -4.8 v -2.399999 -2.4 h -2.56 -2.56 v 2.4 2.399999 h -4.8 -4.800001 v -2.399999 -2.4 h -2.4 -2.4000003 v 2.4 2.399999 h -4.8 -4.79999996 v -2.399999 -2.4 h 2.39999996 2.4 v -2.399999 -2.4 h -2.4 -2.39999996 v -2.4 -2.4 h 2.39999996 2.4 v 2.4 2.4 h 4.8 4.8000003 v -2.4 -2.4 h -2.4 -2.4000003 v -2.399999 -2.4 h 2.4000003 2.4 v -2.56 -2.56 h -4.8000003 -4.8 v 2.56 2.56 h -2.4 -2.39999996 v -2.56 -2.56 h 2.39999996 2.4 v -2.4 -2.4 h -2.4 -2.39999996 v -7.2 -7.2 h 2.39999996 2.4 v 4.8 4.8 h 2.4 2.4 v -2.4 -2.4 h 2.4000003 2.4 v -2.4 -2.4 h 2.400001 2.4 v 2.4 2.4 h 2.4 2.4 v -2.4 -2.4 h 4.96 4.96 v 2.4 2.4 h 2.4 2.4 v -2.4 -2.4 h 2.4 2.4 v 2.4 2.4 h -2.4 -2.4 v 2.4 2.4 h -2.4 -2.4 v 2.4 2.4 h 2.4 2.4 v 2.4 2.4 h 4.8 4.8 v -2.4 -2.4 h -2.4 -2.4 v -2.4 -2.4 h 2.4 2.4 v -4.8 -4.8 h 2.4 2.4 v -2.4 -2.4 h -2.4 -2.4 v -2.4 -2.4 h 2.4 2.4 v 2.4 2.4 h 2.4 2.4 v -2.4 -2.4 h 2.56 2.56 v 2.4 2.4 h 2.4 2.4 v -2.4 -2.4 h 2.4 2.4 v -2.56 -2.56 h -2.4 -2.4 v -2.4 -2.4 h -2.4 -2.4 v 2.4 2.4 h -2.56 -2.56 v -4.8 -4.8 h -4.8 -4.8 v 4.8 4.8 h -2.4 -2.4 v 4.96 4.96 h -2.4 -2.4 v -4.96 -4.96 h 2.4 2.4 v -7.2 -7.2000001 h 9.76 9.76 v 2.4000001 2.4 h 2.4 2.4 v 2.4 2.4 h 2.4 2.4 v -4.8 -4.8000001 h 2.4 2.4 v -2.4 -2.4 h -2.4 -2.4 v -2.4 -2.40000007 h 2.4 2.4 v 2.40000007 2.4 h 2.4 2.4 v 2.4 2.4 h -2.4 -2.4 v 2.4000001 2.4 h 2.4 2.4 v 4.8 4.8 h -2.4 -2.4 v 2.56 2.56 h 2.4 2.4 v 2.4 2.4 h -2.4 -2.4 v -2.4 -2.4 h -2.4 -2.4 v 2.4 2.4 h -2.4 -2.4 v 2.4 2.4 h 2.4 2.4 v 2.4 2.4 h -2.4 -2.4 v 2.4 2.4 h 4.8 4.8 v -4.8 -4.8 h 4.8 4.8 v 2.4 2.4 h 2.4 2.4 v -2.4 -2.4 h 2.56 2.56 v 2.4 2.4 h 2.4 2.399987 v 2.4 2.4 h 4.8 4.8 v -2.4 -2.4 h 2.4 2.40001 v 2.4 2.4 h -2.40001 -2.4 v 2.4 2.4 h -4.8 -4.8 v 2.4 2.4 h -2.399987 -2.4 v 2.56 2.56 h 2.4 2.399987 v 2.4 2.399999 h 2.40001 2.4 v -4.959999 -4.96 h 4.8 4.8 v -2.4 -2.4 h 2.4 2.4 v 4.96 4.96 h -2.4 -2.4 v 2.4 2.399999 h 2.4 2.4 v 2.4 2.4 h -4.8 -4.8 v -2.4 -2.4 h -2.4 -2.4 v 2.4 2.4 h -4.8 -4.799997 v 2.4 2.399999 h 2.4 2.399997 v 4.799999 4.8 h 2.4 2.4 v 2.4 2.4 h 2.4 2.4 v -2.4 -2.4 h 4.8 4.8 v 4.96 4.96 h -2.4 -2.4 v 2.4 2.400002 h -4.8 -4.8 v -2.400002 -2.4 h -2.4 -2.4 v 4.800002 4.8 h 4.8 4.8 v 2.4 2.4 h 2.4 2.4 v -2.4 -2.4 h 2.4 2.4 v 7.2 7.2 h -4.8 -4.8 v -4.8 -4.8 h -2.4 -2.4 v 4.8 4.8 h -4.8 -4.799997 v -2.4 -2.4 h 2.4 2.399997 v -4.8 -4.8 h -2.399997 -2.4 v 2.4 2.4 h -4.96 -4.96 v 4.8 4.8 h -4.8 -4.8 v -4.8 -4.8 h -2.4 -2.4 v 2.4 2.4 h -2.4 -2.4 v -2.4 -2.4 h 2.4 2.4 v -2.4 -2.4 h -2.4 -2.4 v -2.4 -2.4 h 2.4 2.4 v -2.400002 -2.4 h -2.4 -2.4 v -4.96 -4.96 h -2.4 -2.4 v 4.96 4.96 h -2.56 -2.56 v -2.56 -2.56 h -4.8 -4.8 v 2.56 2.56 h 2.4 2.4 v 2.4 2.400002 h 2.4 2.4 v 2.4 2.4 h -2.4 -2.4 v 4.8 4.8 h -2.4 -2.4 v 2.4 2.4 h -4.8 -4.8 z m 48.32,-9.6 v -2.4 h 2.4 2.4 v -2.40001 -2.4 h -4.8 -4.8 v 2.4 2.40001 h -2.4 -2.4 v 2.4 2.4 h 4.8 4.8 z m 9.92,-19.360012 v -7.36 h -7.36 -7.36 v 7.36 7.36 h 7.36 7.36 z m -9.92,-0.16 v -2.4 h 2.4 2.4 v 2.4 2.4 h -2.4 -2.4 z m -38.72,-4.8 v -2.4 h 2.4 2.4 v 2.4 2.4 h 2.4 2.4 v -4.8 -4.799999 h 4.96 4.96 v 2.4 2.399999 h 2.4 2.4 v 2.4 2.4 h 2.4 2.4 v -4.8 -4.799999 h 4.8 4.8 v -4.799999 -4.8 h 2.4 2.4 v 2.4 2.4 h 2.56 2.56 v -2.4 -2.4 h -2.56 -2.56 v -2.399999 -2.4 h -2.4 -2.4 v 2.4 2.399999 h -2.4 -2.4 v -2.399999 -2.4 h -2.4 -2.4 v -4.96 -4.96 h 2.4 2.4 v -2.4 -2.4 h 2.4 2.4 v -2.4 -2.4 h -2.4 -2.4 v 2.4 2.4 h -2.4 -2.4 v 2.4 2.4 h -4.8 -4.8 v 2.4 2.4 h -4.96 -4.96 v -2.4 -2.4 h -2.4 -2.4 v -2.4 -2.4 h -2.4 -2.4 v 2.4 2.4 h 2.4 2.4 v 4.96 4.96 h 2.4 2.4 v 7.199999 7.199999 h -2.4 -2.4 v -4.799999 -4.8 h -2.4 -2.4 v -2.399999 -2.4 h -4.8 -4.8 v -2.56 -2.56 h -2.4 -2.4 v -2.4 -2.4 h -2.4 -2.4 v -2.4 -2.4 h 2.4 2.4 v -2.4 -2.4 h -4.96 -4.96 v 2.4 2.4 h -7.2 -7.2000013 v 2.4 2.4 h 7.2000013 7.2 v 9.76 9.759999 h -4.8 -4.800001 v 2.4 2.399999 h 4.800001 4.8 v -2.399999 -2.4 h 2.56 2.56 v 2.4 2.399999 h 4.8 4.8 v 2.4 2.399999 h 2.4 2.4 v 2.4 2.4 h 2.4 2.4 z m -4.8,-9.599998 v -2.4 h 2.4 2.4 v 2.4 2.399999 h -2.4 -2.4 z m -14.4,-4.8 v -2.4 h 2.4 2.4 v 2.4 2.4 h -2.4 -2.4 z m 33.92,-2.4 v -4.799999 h 2.4 2.4 v -2.56 -2.56 h 2.4 2.4 v 4.96 4.959999 h 4.8 4.8 v 2.4 2.4 h -9.6 -9.6 z m -33.92,-7.359999 v -2.56 h 2.4 2.4 v 2.56 2.56 h -2.4 -2.4 z m 72.639997,-9.76 v -2.4 h -2.399997 -2.4 v -2.4 -2.4 h -2.56 -2.56 v 2.4 2.4 h 2.56 2.56 v 2.4 2.4 h 2.4 2.399997 z m -38.719997,-4.8 v -2.4 h 2.4 2.4 v -2.4 -2.4 h -2.4 -2.4 v -2.4 -2.4 h -2.56 -2.56 v 2.4 2.4 h 2.56 2.56 v 2.4 2.4 h -2.56 -2.56 v 2.4 2.4 h 2.56 2.56 z m -5.12,72.640009 v -2.4 h 2.56 2.56 v 2.4 2.4 h -2.56 -2.56 z M 116.16248,79.843349 v -2.4 h 2.4 2.4 v 2.4 2.399999 h -2.4 -2.4 z M 0.00248174,16.963351 V 0.00335083 h 16.96000126 16.96 v 16.96000017 16.96 h -16.96 -16.96000126 z m 29.12000126,0 V 4.8033509 h -12.16 -12.1600013 v 12.1600001 12.16 h 12.1600013 12.16 z m -19.5200013,-0.16 V 9.6033509 h 7.2000013 7.2 v 7.2000001 7.2 h -7.2 -7.2000013 z m 77.4400013,0.16 V 0.00335083 h 16.959997 16.96 v 16.96000017 16.96 h -16.96 -16.959997 z m 29.119997,0 V 4.8033509 h -12.16 -12.159997 v 12.1600001 12.16 h 12.159997 12.16 z m -19.199997,-0.16 V 9.6033509 h 7.199987 7.2 v 7.2000001 7.2 h -7.2 -7.199987 z m -48.64,-14.4000001 V 0.00335083 h 7.36 7.36 v 2.40000007 2.4 h -7.36 -7.36 z"
       id="path1" />
  </g>
</svg>
